<?xml version="1.0" standalone="no"?>
<!DOCTYPE svg PUBLIC "-//W3C//DTD SVG 20010904//EN"
 "http://www.w3.org/TR/2001/REC-SVG-20010904/DTD/svg10.dtd">
<svg version="1.0" xmlns="http://www.w3.org/2000/svg"
 width="250.000000pt" height="250.000000pt" viewBox="0 0 250.000000 250.000000"
 preserveAspectRatio="xMidYMid meet">
<metadata>
Created by potrace 1.11, written by Peter Selinger 2001-2013
</metadata>
<g transform="translate(0.000000,250.000000) scale(0.100000,-0.100000)"
fill="#000000" stroke="none">
<path d="M704 1970 c-83 -12 -121 -29 -158 -70 -46 -51 -55 -89 -62 -255 -3
-77 -10 -161 -15 -186 -13 -60 -53 -99 -108 -106 l-41 -6 0 -93 0 -94 29 0
c37 0 92 -38 111 -75 9 -20 17 -86 22 -194 10 -201 18 -234 72 -287 48 -49 88
-62 201 -66 l80 -3 3 92 3 93 -45 0 c-98 0 -116 30 -116 191 0 170 -30 267
-101 322 l-30 24 37 28 c65 49 84 110 94 292 4 87 11 166 15 175 8 21 56 38
107 38 l39 0 -3 93 -3 92 -40 1 c-22 1 -63 -2 -91 -6z"/>
<path d="M1658 1974 c-5 -4 -8 -47 -8 -96 l0 -88 39 0 c50 0 98 -17 106 -38 4
-9 11 -88 15 -175 7 -141 10 -163 35 -212 14 -30 42 -68 62 -84 35 -29 35 -29
14 -41 -29 -15 -78 -85 -91 -129 -6 -20 -15 -105 -19 -190 -8 -151 -9 -155
-35 -178 -21 -17 -39 -23 -77 -23 l-50 0 3 -93 3 -92 80 3 c111 4 149 16 199
65 57 54 65 86 75 296 8 186 14 205 74 241 18 11 44 20 60 20 l27 0 0 95 0 95
-27 0 c-16 0 -42 9 -60 20 -60 36 -66 55 -74 241 -5 93 -13 188 -19 210 -16
57 -71 115 -128 133 -55 17 -194 31 -204 20z"/>
</g>
</svg>
